<svg width="24" height="24" viewBox="0 0 24 24" fill="none" xmlns="http://www.w3.org/2000/svg">
<path fill-rule="evenodd" clip-rule="evenodd" d="M21.7837 15.7837C20.3628 16.5592 18.7328 17 17 17C11.4772 17 7 12.5228 7 7C7 5.26715 7.44076 3.63724 8.21627 2.21627C5.1084 3.91245 3 7.21 3 11C3 16.5228 7.47715 21 13 21C16.79 21 20.0875 18.8916 21.7837 15.7837Z" fill="#0A335C"/>
<path d="M15.5 0C15.5 0 15.8035 2.83247 16.9855 4.0145C18.1675 5.19654 21 5.5 21 5.5C21 5.5 18.1675 5.80346 16.9855 6.9855C15.8035 8.16753 15.5 11 15.5 11C15.5 11 15.1965 8.16753 14.0145 6.9855C12.8325 5.80346 10 5.5 10 5.5C10 5.5 12.8325 5.19654 14.0145 4.0145C15.1965 2.83247 15.5 0 15.5 0Z" fill="#73EFFF"/>
<path d="M21 8C21 8 21.1655 9.54498 21.8103 10.1897C22.455 10.8345 24 11 24 11C24 11 22.455 11.1655 21.8103 11.8103C21.1655 12.455 21 14 21 14C21 14 20.8345 12.455 20.1897 11.8103C19.545 11.1655 18 11 18 11C18 11 19.545 10.8345 20.1897 10.1897C20.8345 9.54498 21 8 21 8Z" fill="#73EFFF"/>
</svg>
