<svg width="192" height="24" viewBox="0 0 192 24" fill="none" xmlns="http://www.w3.org/2000/svg">
<path d="M48.468 8.35199C49.02 4.58399 46.86 1.54799 40.668 1.54799H31.476C30.048 1.54799 28.704 2.72399 28.5 4.15199L26.04 20.976C25.836 22.404 26.832 23.58 28.26 23.58C29.688 23.58 31.032 22.404 31.236 20.976L32.1 15.084H38.172L41.1 22.368C41.388 23.1 42.012 23.58 43.128 23.58C44.556 23.58 45.72 22.5 45.9 21.192C45.96 20.76 45.9 20.328 45.732 19.98L43.476 14.34C46.5 13.212 48.084 11.004 48.468 8.35199V8.35199ZM43.356 8.30399C43.176 9.51599 42.12 10.86 40.08 10.86H32.712L33.456 5.78399H40.824C42.864 5.78399 43.536 7.07999 43.356 8.30399ZM64.032 2.59199C63.684 1.72799 63.192 1.19999 62.064 1.19999C60.936 1.19999 60.252 1.71599 59.688 2.59199L48.444 20.196C48.264 20.496 48.072 20.94 48.024 21.276C47.832 22.572 48.684 23.58 50.112 23.58C51.24 23.58 51.984 22.968 52.548 22.068L54.84 18.516H64.2L65.46 22.068C65.76 22.98 66.324 23.58 67.452 23.58C68.88 23.58 70.02 22.584 70.212 21.276C70.26 20.928 70.2 20.496 70.116 20.196L64.032 2.59199ZM57.168 14.556L61.116 7.75199L63.024 14.556H57.168ZM90.336 3.75599C90.516 2.54399 89.664 1.54799 88.452 1.54799H71.712C70.5 1.54799 69.36 2.54399 69.18 3.75599C69 4.96799 69.852 5.96399 71.064 5.96399H76.836L74.64 20.964C74.436 22.392 75.432 23.568 76.86 23.568C78.288 23.568 79.632 22.392 79.836 20.964L82.032 5.96399H87.804C89.016 5.96399 90.156 4.96799 90.336 3.75599V3.75599ZM100.152 2.57999C99.804 1.71599 99.312 1.18799 98.184 1.18799C97.056 1.18799 96.372 1.70399 95.808 2.57999L84.564 20.184C84.384 20.484 84.192 20.928 84.144 21.264C83.952 22.56 84.804 23.568 86.232 23.568C87.36 23.568 88.104 22.956 88.668 22.056L90.96 18.504H100.32L101.58 22.056C101.88 22.968 102.444 23.568 103.572 23.568C105 23.568 106.14 22.572 106.332 21.264C106.38 20.916 106.32 20.484 106.236 20.184L100.14 2.57999H100.152ZM93.288 14.544L97.236 7.73999L99.144 14.544H93.288V14.544ZM124.8 1.54799H108.06C106.848 1.54799 105.708 2.54399 105.528 3.75599C105.348 4.96799 106.2 5.96399 107.412 5.96399H113.172L110.976 20.964C110.772 22.392 111.768 23.568 113.196 23.568C114.624 23.568 115.968 22.392 116.184 20.964L118.38 5.96399H124.14C125.352 5.96399 126.492 4.96799 126.672 3.75599C126.852 2.54399 126 1.54799 124.788 1.54799H124.8ZM146.052 1.19999C145.056 1.19999 144.48 1.54799 143.868 2.19599L136.716 9.87599L131.808 2.19599C131.46 1.63199 130.908 1.19999 129.912 1.19999C128.436 1.19999 127.392 2.14799 127.2 3.40799C127.116 4.01999 127.272 4.40399 127.62 4.96799L133.464 14.244L132.48 20.964C132.276 22.392 133.272 23.568 134.7 23.568C136.128 23.568 137.472 22.392 137.676 20.964L138.66 14.244L147.216 4.96799C147.732 4.40399 148.008 4.00799 148.092 3.40799C148.272 2.14799 147.504 1.19999 146.028 1.19999H146.052ZM161.592 1.54799H152.832C151.404 1.54799 150.06 2.72399 149.856 4.15199L147.396 20.976C147.192 22.404 148.188 23.58 149.616 23.58C151.044 23.58 152.388 22.404 152.604 20.976L153.456 15.168H159.612C165.816 15.168 168.852 12.18 169.404 8.39999C169.956 4.63199 167.808 1.54799 161.604 1.54799H161.592ZM164.196 8.35199C164.016 9.56399 162.96 10.872 160.92 10.872H154.068L154.8 5.84399H161.652C163.692 5.84399 164.364 7.13999 164.184 8.36399L164.196 8.35199ZM188.052 1.54799H175.176C173.748 1.54799 172.404 2.72399 172.188 4.15199L169.776 20.628C169.572 22.056 170.568 23.232 171.996 23.232H185.388C186.6 23.232 187.74 22.236 187.92 21.024C188.1 19.812 187.248 18.816 186.036 18.816H175.236L175.872 14.436H181.812C183.024 14.436 184.164 13.44 184.344 12.228C184.524 11.016 183.672 10.02 182.46 10.02H176.52L177.108 5.98799H187.38C188.592 5.98799 189.732 4.99199 189.912 3.77999C190.092 2.56799 189.24 1.57199 188.028 1.57199L188.052 1.54799Z" fill="white"/>
<path fill-rule="evenodd" clip-rule="evenodd" d="M22.068 1.5H4.896C3.708 1.5 2.592 2.472 2.424 3.66C2.244 4.848 3.072 5.82 4.26 5.82H21.444C22.632 5.82 23.736 4.86 23.916 3.66C24.096 2.472 23.268 1.5 22.08 1.5H22.068ZM20.7 10.884H12.78C11.592 10.884 10.488 11.844 10.308 13.044C10.14 14.232 10.956 15.204 12.144 15.204H20.064C21.252 15.204 22.356 14.244 22.536 13.044C22.704 11.856 21.888 10.884 20.7 10.884V10.884Z" fill="#73EFFF"/>
</svg>
