<svg width="16" height="19" viewBox="0 0 16 19" fill="none" xmlns="http://www.w3.org/2000/svg">
<path d="M9.64018 0.366823L13.0781 3.23178C13.5579 3.63158 13.5579 4.36843 13.0781 4.76822L9.64018 7.63318C8.98886 8.17596 8 7.7128 8 6.86496V5C4.68629 5 2 7.68629 2 11C2 14.3137 4.68629 17 8 17C10.7165 17 13.0138 15.1939 13.7517 12.7148C13.9092 12.1854 14.466 11.884 14.9954 12.0415C15.5247 12.1991 15.8261 12.7559 15.6686 13.2853C14.6853 16.5891 11.6255 19 8 19C3.58172 19 0 15.4183 0 11C0 6.58172 3.58172 3 8 3V1.13504C8 0.287206 8.98886 -0.17595 9.64018 0.366823Z" fill="#9FB8C6"/>
</svg>
