<svg width="176" height="176" viewBox="0 0 176 176" fill="none" xmlns="http://www.w3.org/2000/svg">
<g clip-path="url(#clip0_4_31)">
<path fill-rule="evenodd" clip-rule="evenodd" d="M65.7381 40.2499H114.388C112.189 28.8204 102.134 20.1862 90.0628 20.1862C77.9916 20.1862 67.9371 28.8204 65.7381 40.2499Z" fill="#2268BA"/>
<path d="M60.9472 134.169L67.5987 151.56C67.9157 152.389 66.8271 153.022 66.263 152.337C65.1232 150.953 63.0807 150.722 61.6455 151.796C60.952 152.315 59.9477 152.066 59.5904 151.277L59.3611 150.771C58.5289 148.933 56.5762 147.873 54.5817 148.176L54.2815 148.222C53.2083 148.385 52.2771 147.476 52.4139 146.399L53.8598 135.02C54.1751 132.538 56.8211 131.088 59.0827 132.157C59.9403 132.562 60.6083 133.283 60.9472 134.169Z" fill="#D76423"/>
<path d="M78.0455 134.424L84.697 151.815C85.014 152.643 83.9254 153.277 83.3613 152.592C82.2215 151.208 80.179 150.977 78.7438 152.051C78.0503 152.57 77.0461 152.321 76.6887 151.532L76.4595 151.025C75.6273 149.188 73.6745 148.128 71.6801 148.431L71.3798 148.476C70.3066 148.639 69.3754 147.731 69.5123 146.654L70.9581 135.274C71.2734 132.793 73.9194 131.342 76.181 132.411C77.0387 132.817 77.7067 133.538 78.0455 134.424Z" fill="#D76423"/>
<path d="M6.4547 86.518L42.0333 59.7317L76.9411 114.633C76.0739 113.296 52.1453 120.815 35.7 115.797C20.5529 111.175 10.3779 92.1065 6.4547 86.518Z" fill="#2268BA"/>
<path d="M119.913 96.2609C117.895 121.235 95.7019 139.82 70.3434 137.771C44.985 135.722 26.0638 113.815 28.0817 88.8411C30.0996 63.867 52.2924 45.2824 77.6508 47.3313C90.1861 48.3441 97.0735 58.3267 104.711 67.0161C112.524 75.9051 120.933 83.6321 119.913 96.2609Z" fill="#3375C4"/>
<path d="M77.1473 36.5969L77.1238 56.0906L169.135 56.0906C161.747 49.1863 143.157 41.5386 124.805 40.1393L77.1473 36.5969Z" fill="#FFB463"/>
<path d="M169.422 65.6619L169.56 61.8694L92.0398 55.2354L105.498 125.374C139.607 126.451 168.176 99.7649 169.422 65.6619Z" fill="#FFB463"/>
<rect x="50.3115" y="19.4305" width="41.9765" height="65.6194" rx="20.9883" transform="rotate(0.09 50.3115 19.4305)" fill="#3375C4"/>
<circle cx="70.3832" cy="40.5175" r="12.0793" transform="rotate(0.038969 70.3832 40.5175)" fill="white"/>
<circle cx="73.0779" cy="40.6964" r="7.32678" transform="rotate(0.038969 73.0779 40.6964)" fill="black"/>
</g>
<defs>
<clipPath id="clip0_4_31">
<rect width="176" height="176" fill="white" transform="matrix(-1 0 0 1 176 0)"/>
</clipPath>
</defs>
</svg>
